<mxfile host="app.diagrams.net" modified="2022-11-11T17:35:11.084Z" agent="5.0 (Windows NT 10.0; Win64; x64) AppleWebKit/537.36 (KHTML, like Gecko) Chrome/107.0.0.0 Safari/537.36" etag="mtU9MyIR-IkooEuVtl6J" version="20.5.3" type="github">
  <diagram id="Y2OEFXT2mftuIbTFr3vj" name="Página-1">
    <mxGraphModel dx="868" dy="1593" grid="1" gridSize="10" guides="1" tooltips="1" connect="1" arrows="1" fold="1" page="1" pageScale="1" pageWidth="827" pageHeight="1169" math="0" shadow="0">
      <root>
        <mxCell id="0" />
        <mxCell id="1" parent="0" />
        <mxCell id="d-T3izA6gYKMVIQF0zMu-17" style="edgeStyle=orthogonalEdgeStyle;rounded=0;orthogonalLoop=1;jettySize=auto;html=1;entryX=1;entryY=0.5;entryDx=0;entryDy=0;endArrow=none;endFill=0;" edge="1" parent="1" source="d-T3izA6gYKMVIQF0zMu-1" target="d-T3izA6gYKMVIQF0zMu-6">
          <mxGeometry relative="1" as="geometry" />
        </mxCell>
        <mxCell id="d-T3izA6gYKMVIQF0zMu-1" value="Sistema del banco" style="shape=umlActor;verticalLabelPosition=bottom;verticalAlign=top;html=1;outlineConnect=0;" vertex="1" parent="1">
          <mxGeometry x="680" y="180" width="30" height="60" as="geometry" />
        </mxCell>
        <mxCell id="d-T3izA6gYKMVIQF0zMu-11" value="" style="rounded=0;whiteSpace=wrap;html=1;fillColor=none;" vertex="1" parent="1">
          <mxGeometry x="210" y="-40" width="450" height="630" as="geometry" />
        </mxCell>
        <mxCell id="d-T3izA6gYKMVIQF0zMu-20" style="edgeStyle=orthogonalEdgeStyle;rounded=0;orthogonalLoop=1;jettySize=auto;html=1;entryX=0;entryY=0.5;entryDx=0;entryDy=0;endArrow=classic;endFill=1;" edge="1" parent="1" source="d-T3izA6gYKMVIQF0zMu-2" target="d-T3izA6gYKMVIQF0zMu-7">
          <mxGeometry relative="1" as="geometry">
            <Array as="points">
              <mxPoint x="165" y="550" />
              <mxPoint x="344" y="550" />
            </Array>
          </mxGeometry>
        </mxCell>
        <mxCell id="d-T3izA6gYKMVIQF0zMu-2" value="Empleado" style="shape=umlActor;verticalLabelPosition=bottom;verticalAlign=top;html=1;outlineConnect=0;" vertex="1" parent="1">
          <mxGeometry x="150" y="320" width="30" height="60" as="geometry" />
        </mxCell>
        <mxCell id="d-T3izA6gYKMVIQF0zMu-12" style="edgeStyle=orthogonalEdgeStyle;rounded=0;orthogonalLoop=1;jettySize=auto;html=1;entryX=0;entryY=0.5;entryDx=0;entryDy=0;" edge="1" parent="1" source="d-T3izA6gYKMVIQF0zMu-3" target="d-T3izA6gYKMVIQF0zMu-10">
          <mxGeometry relative="1" as="geometry" />
        </mxCell>
        <mxCell id="d-T3izA6gYKMVIQF0zMu-3" value="Cliente no registrado" style="shape=umlActor;verticalLabelPosition=bottom;verticalAlign=top;html=1;outlineConnect=0;" vertex="1" parent="1">
          <mxGeometry x="150" y="90" width="30" height="60" as="geometry" />
        </mxCell>
        <mxCell id="d-T3izA6gYKMVIQF0zMu-13" style="edgeStyle=orthogonalEdgeStyle;rounded=0;orthogonalLoop=1;jettySize=auto;html=1;entryX=0;entryY=0.5;entryDx=0;entryDy=0;" edge="1" parent="1" source="d-T3izA6gYKMVIQF0zMu-4" target="d-T3izA6gYKMVIQF0zMu-9">
          <mxGeometry relative="1" as="geometry" />
        </mxCell>
        <mxCell id="d-T3izA6gYKMVIQF0zMu-14" style="edgeStyle=orthogonalEdgeStyle;rounded=0;orthogonalLoop=1;jettySize=auto;html=1;" edge="1" parent="1" source="d-T3izA6gYKMVIQF0zMu-4" target="d-T3izA6gYKMVIQF0zMu-8">
          <mxGeometry relative="1" as="geometry" />
        </mxCell>
        <mxCell id="d-T3izA6gYKMVIQF0zMu-15" style="edgeStyle=orthogonalEdgeStyle;rounded=0;orthogonalLoop=1;jettySize=auto;html=1;entryX=0;entryY=0.5;entryDx=0;entryDy=0;" edge="1" parent="1" source="d-T3izA6gYKMVIQF0zMu-4" target="d-T3izA6gYKMVIQF0zMu-5">
          <mxGeometry relative="1" as="geometry" />
        </mxCell>
        <mxCell id="d-T3izA6gYKMVIQF0zMu-16" style="edgeStyle=orthogonalEdgeStyle;rounded=0;orthogonalLoop=1;jettySize=auto;html=1;entryX=0;entryY=0.5;entryDx=0;entryDy=0;endArrow=none;endFill=0;" edge="1" parent="1" source="d-T3izA6gYKMVIQF0zMu-4" target="d-T3izA6gYKMVIQF0zMu-6">
          <mxGeometry relative="1" as="geometry">
            <Array as="points">
              <mxPoint x="165" y="375" />
            </Array>
          </mxGeometry>
        </mxCell>
        <mxCell id="d-T3izA6gYKMVIQF0zMu-22" style="edgeStyle=orthogonalEdgeStyle;rounded=0;orthogonalLoop=1;jettySize=auto;html=1;entryX=0;entryY=0.5;entryDx=0;entryDy=0;endArrow=classic;endFill=1;" edge="1" parent="1" source="d-T3izA6gYKMVIQF0zMu-4" target="d-T3izA6gYKMVIQF0zMu-21">
          <mxGeometry relative="1" as="geometry" />
        </mxCell>
        <mxCell id="d-T3izA6gYKMVIQF0zMu-4" value="Cliente registrado" style="shape=umlActor;verticalLabelPosition=bottom;verticalAlign=top;html=1;outlineConnect=0;" vertex="1" parent="1">
          <mxGeometry x="150" y="200" width="30" height="60" as="geometry" />
        </mxCell>
        <mxCell id="d-T3izA6gYKMVIQF0zMu-5" value="Subir foto" style="ellipse;whiteSpace=wrap;html=1;" vertex="1" parent="1">
          <mxGeometry x="344" y="250" width="140" height="70" as="geometry" />
        </mxCell>
        <mxCell id="d-T3izA6gYKMVIQF0zMu-26" style="edgeStyle=orthogonalEdgeStyle;rounded=0;orthogonalLoop=1;jettySize=auto;html=1;entryX=1;entryY=0.5;entryDx=0;entryDy=0;endArrow=classic;endFill=1;" edge="1" parent="1" source="d-T3izA6gYKMVIQF0zMu-6" target="d-T3izA6gYKMVIQF0zMu-21">
          <mxGeometry relative="1" as="geometry">
            <Array as="points">
              <mxPoint x="500" y="445" />
              <mxPoint x="500" y="365" />
            </Array>
          </mxGeometry>
        </mxCell>
        <mxCell id="d-T3izA6gYKMVIQF0zMu-27" value="&amp;lt;extends&amp;gt;" style="edgeLabel;html=1;align=center;verticalAlign=middle;resizable=0;points=[];" vertex="1" connectable="0" parent="d-T3izA6gYKMVIQF0zMu-26">
          <mxGeometry x="-0.2167" y="2" relative="1" as="geometry">
            <mxPoint as="offset" />
          </mxGeometry>
        </mxCell>
        <mxCell id="d-T3izA6gYKMVIQF0zMu-6" value="Pagar con tarjeta" style="ellipse;whiteSpace=wrap;html=1;" vertex="1" parent="1">
          <mxGeometry x="340" y="410" width="140" height="70" as="geometry" />
        </mxCell>
        <mxCell id="d-T3izA6gYKMVIQF0zMu-7" value="Registrar retiro" style="ellipse;whiteSpace=wrap;html=1;" vertex="1" parent="1">
          <mxGeometry x="344" y="500" width="140" height="70" as="geometry" />
        </mxCell>
        <mxCell id="d-T3izA6gYKMVIQF0zMu-8" value="Cerrar sesión" style="ellipse;whiteSpace=wrap;html=1;" vertex="1" parent="1">
          <mxGeometry x="340" y="175" width="140" height="70" as="geometry" />
        </mxCell>
        <mxCell id="d-T3izA6gYKMVIQF0zMu-9" value="Iniciar sesión" style="ellipse;whiteSpace=wrap;html=1;" vertex="1" parent="1">
          <mxGeometry x="340" y="90" width="140" height="70" as="geometry" />
        </mxCell>
        <mxCell id="d-T3izA6gYKMVIQF0zMu-10" value="Realizar registro" style="ellipse;whiteSpace=wrap;html=1;" vertex="1" parent="1">
          <mxGeometry x="340" y="10" width="140" height="70" as="geometry" />
        </mxCell>
        <mxCell id="d-T3izA6gYKMVIQF0zMu-21" value="Pagar fotos" style="ellipse;whiteSpace=wrap;html=1;fillColor=none;" vertex="1" parent="1">
          <mxGeometry x="340" y="330" width="140" height="70" as="geometry" />
        </mxCell>
      </root>
    </mxGraphModel>
  </diagram>
</mxfile>
